# xmcd
# Track frame offsets:
# 150
# 13793
# 28351
# 44287
# 60752
# 75766
# 86513
# 101152
# 112763
# 132784
# 145318
# 163163
#
# Disc length: 2423 seconds
# Revision: 0
# Processed by: cddbd v1.5.2PL0 Copyright (c) Steve Scherf et al.
# Submitted via: VisiTrax 2.11.3.279 - For more info visit www.synapsa.com
#
DISCID=8e09750c
DTITLE=Kim Carson - Enough Heart Left To Break
DYEAR=2014
DGENRE=
TTITLE0=Enough Heart Left To Break
TTITLE1=San Antonio Again
TTITLE2=Out In California
TTITLE3=Missing You
TTITLE4=Could Never Do Nothing Right
TTITLE5=Maybe My Baby
TTITLE6=Oh How I Love You
TTITLE7=Gettin´On With Gettin´Over
TTITLE8=The Road To Abiline
TTITLE9=Guitar Playing  Girls
TTITLE10=Vaya Con Dios
TTITLE11=Shine
EXTD=
EXTT0=
EXTT1=
EXTT2=
EXTT3=
EXTT4=
EXTT5=
EXTT6=
EXTT7=
EXTT8=
EXTT9=
EXTT10=
EXTT11=
PLAYORDER=
